<?xml version="1.0" standalone="no"?>
<!DOCTYPE svg PUBLIC "-//W3C//DTD SVG 20010904//EN"
 "http://www.w3.org/TR/2001/REC-SVG-20010904/DTD/svg10.dtd">
<svg version="1.0" xmlns="http://www.w3.org/2000/svg"
 width="500.000000pt" height="500.000000pt" viewBox="0 0 500.000000 500.000000"
 preserveAspectRatio="xMidYMid meet">

<g transform="translate(0.000000,500.000000) scale(0.100000,-0.100000)"
fill="#000000" stroke="none">
<path d="M2310 4525 c-129 -18 -300 -59 -407 -96 -112 -39 -370 -163 -461
-222 -186 -120 -435 -347 -518 -472 -14 -22 -41 -58 -59 -80 -143 -176 -296
-519 -344 -772 -52 -269 -54 -583 -7 -837 61 -329 199 -623 425 -903 190 -236
468 -452 745 -577 101 -46 340 -129 432 -149 234 -53 538 -67 749 -33 225 36
486 116 657 202 244 123 481 306 652 503 261 301 434 687 491 1091 17 124 19
387 4 515 -29 243 -142 578 -267 792 -104 177 -301 419 -430 526 -175 146
-286 220 -461 307 -221 109 -334 147 -596 197 -112 21 -479 27 -605 8z m330
-505 l0 -260 49 0 c88 0 331 -50 331 -68 0 -18 -36 -92 -45 -92 -6 0 -51 9
-100 19 -50 10 -123 21 -162 24 l-73 4 0 -103 0 -104 -60 0 -60 0 0 103 0 104
-57 -4 c-32 -2 -107 -13 -166 -25 -60 -11 -109 -19 -110 -17 -1 2 -7 18 -13
34 -7 17 -15 37 -18 46 -6 14 7 20 71 37 87 23 204 42 257 42 l36 0 0 260 0
260 60 0 60 0 0 -260z m563 144 c65 -25 117 -47 117 -49 0 -18 -23 -55 -34
-55 -8 0 -56 16 -107 36 -52 20 -104 40 -116 45 -20 7 -21 11 -12 39 6 16 17
30 23 30 7 0 65 -21 129 -46z m-1035 -63 c12 -43 22 -102 22 -131 0 -46 -4
-56 -33 -85 -55 -55 -160 -60 -207 -10 -17 18 -86 215 -77 221 15 10 68 21 72
14 3 -5 14 -44 25 -87 22 -88 47 -118 89 -108 14 3 35 15 46 26 19 19 19 19
-4 112 -13 50 -24 96 -25 101 -1 8 33 23 60 25 6 1 21 -34 32 -78z m956 -45
c132 -45 148 -54 140 -79 -11 -39 -21 -40 -110 -8 -48 17 -88 30 -90 29 -1 -2
-5 -14 -9 -28 -5 -24 -1 -27 80 -58 85 -34 98 -47 76 -81 -8 -12 -20 -11 -78
8 -108 35 -174 64 -170 75 2 6 17 48 32 94 21 62 32 81 43 77 8 -3 47 -16 86
-29z m261 -106 c17 -18 17 -21 1 -45 -19 -29 -33 -31 -58 -8 -22 20 -23 37 -2
57 21 21 37 20 59 -4z m-1788 -65 l26 -18 -24 -18 c-14 -12 -33 -17 -46 -14
-30 7 -89 -18 -102 -43 -20 -38 -13 -82 18 -113 50 -50 124 -35 151 31 9 21
19 30 35 30 75 0 37 -108 -52 -151 -115 -56 -252 43 -240 174 5 60 30 95 88
125 50 26 103 25 146 -3z m2140 0 c32 -21 53 -56 60 -100 l6 -36 -39 3 c-33 3
-40 7 -42 28 -5 36 -22 51 -51 48 -33 -4 -32 -38 4 -80 54 -64 13 -168 -67
-168 -62 0 -121 52 -134 117 -5 26 -3 31 18 36 39 11 46 8 53 -23 7 -34 47
-65 70 -56 22 8 18 35 -11 73 -40 53 -48 86 -29 123 29 56 104 72 162 35z
m-1689 -280 c12 -25 22 -47 22 -49 0 -5 -193 -107 -194 -104 -1 2 -14 20 -30
41 -15 21 -26 44 -23 51 5 13 173 105 193 106 5 0 20 -20 32 -45z m1205 0
c121 -66 287 -187 362 -265 l40 -41 -105 -99 -105 -98 -45 44 -45 44 60 54 60
54 -20 22 c-43 48 -213 164 -315 215 -19 10 -36 19 -38 20 -8 7 42 95 54 95 9
0 53 -20 97 -45z m579 8 c10 -9 18 -22 18 -29 0 -17 -28 -44 -45 -44 -7 0 -21
7 -29 16 -9 8 -16 22 -16 29 0 16 27 45 42 45 6 0 20 -7 30 -17z m265 -127
c60 -81 60 -120 1 -171 -50 -42 -156 -115 -169 -115 -5 0 -16 12 -26 26 -19
29 -21 25 41 69 19 14 18 15 -8 55 -14 22 -30 40 -35 40 -4 0 -20 -9 -35 -21
l-26 -21 -20 24 c-25 30 -25 45 1 58 11 6 61 40 111 76 104 73 96 74 165 -20z
m-2888 33 c13 -12 27 -34 32 -48 6 -18 20 -30 42 -37 43 -12 72 -69 57 -109
-12 -33 -47 -75 -90 -112 -30 -24 -31 -25 -50 -8 -11 10 -20 22 -20 27 0 5 21
31 46 58 29 31 44 55 40 65 -10 27 -39 16 -86 -35 l-46 -50 -23 24 -23 25 46
54 c45 53 51 79 22 90 -8 3 -35 -17 -62 -44 -26 -27 -53 -49 -60 -49 -6 0 -19
9 -29 20 -18 20 -18 22 45 85 55 56 69 65 100 65 23 0 45 -8 59 -21z m561
-132 c0 -7 -21 -30 -46 -51 l-46 -38 26 -27 26 -27 -43 -42 -42 -41 -73 67
-73 67 58 56 c32 31 78 71 103 88 l45 32 32 -35 c18 -20 33 -42 33 -49z m540
-19 c12 -40 28 -93 36 -117 20 -62 18 -68 -17 -80 -18 -6 -33 -11 -35 -11 -2
0 -19 53 -39 118 -20 64 -38 123 -40 129 -4 10 33 28 67 32 4 1 17 -32 28 -71z
m746 -1 c66 -45 107 -105 107 -154 0 -47 -25 -97 -59 -119 -22 -15 -98 -23
-109 -12 -2 2 0 21 6 41 8 29 15 37 32 37 58 0 64 63 11 114 -44 42 -66 51
-94 36 -32 -17 -41 -50 -22 -82 14 -24 14 -29 -5 -58 l-20 -31 -31 36 c-27 29
-32 44 -32 84 0 54 22 90 74 122 46 28 87 24 142 -14z m-905 -34 c15 -9 31
-24 34 -32 8 -20 -35 -64 -50 -51 -8 7 -17 4 -28 -8 -23 -25 -2 -66 36 -70 15
-2 27 -7 27 -11 0 -5 3 -23 6 -40 6 -30 6 -31 -33 -31 -117 0 -169 146 -83
232 33 32 51 35 91 11z m489 -188 l0 -185 -60 0 -60 0 0 185 0 185 60 0 60 0
0 -185z m-1157 33 l37 -33 -36 -55 c-19 -30 -53 -90 -75 -134 l-40 -78 -41 6
c-73 12 -73 12 -22 116 53 112 115 210 130 210 6 0 27 -15 47 -32z m2292 -37
c96 -146 195 -423 195 -549 0 -16 3 -44 6 -61 l7 -31 98 0 99 0 14 -34 c17
-42 51 -66 92 -66 63 0 75 73 17 100 -27 12 -33 21 -33 48 0 28 3 32 28 32 62
0 122 -67 122 -135 0 -65 -63 -125 -133 -125 -41 0 -111 31 -125 55 -7 13 -25
15 -98 13 l-89 -3 -2 -45 c-2 -25 -10 -87 -19 -137 -18 -103 -19 -104 -95 -83
l-36 10 13 68 c7 37 13 95 14 130 l0 62 -345 0 -345 0 0 55 0 55 347 2 347 3
-3 60 c-8 177 -59 321 -197 552 l-19 32 35 30 c19 17 40 30 47 31 6 0 32 -31
58 -69z m-1766 -156 c110 -104 201 -192 201 -195 0 -3 -17 -24 -38 -48 l-37
-43 -207 197 -206 197 36 44 c20 24 39 42 43 41 4 -2 97 -88 208 -193z m2281
121 c9 -28 7 -42 -10 -85 -11 -29 -20 -56 -20 -61 0 -4 23 -16 50 -25 40 -13
51 -22 56 -43 3 -15 7 -33 10 -39 4 -16 -2 -16 -62 2 -27 8 -51 15 -54 15 -3
0 -4 -21 -2 -47 l3 -48 -54 57 c-42 45 -63 59 -101 69 -47 12 -66 33 -66 76 0
16 24 16 108 -2 l32 -8 41 91 c23 50 45 89 50 87 4 -3 13 -20 19 -39z m-3376
3 c21 -10 23 -15 16 -41 -7 -23 -6 -30 8 -35 9 -3 53 -21 97 -39 74 -30 80
-34 78 -60 -3 -41 -16 -47 -58 -30 -21 9 -41 16 -44 16 -4 0 -15 -25 -25 -55
-9 -30 -19 -55 -21 -55 -15 0 -55 25 -55 35 0 7 7 32 15 55 11 32 12 46 4 56
-20 24 -36 15 -52 -28 -9 -24 -21 -56 -26 -71 -11 -27 -11 -27 -41 -12 -16 9
-30 19 -30 22 0 17 94 253 101 253 5 0 19 -5 33 -11z m2280 -246 l-168 -163
-38 37 c-21 20 -38 42 -38 48 0 5 73 81 162 167 l163 157 43 -42 44 -42 -168
-162z m-1529 -6 c66 -30 142 -64 168 -75 l48 -21 -16 -38 c-9 -20 -18 -39 -20
-41 -4 -5 -332 144 -348 158 -12 10 22 83 36 77 7 -3 66 -30 132 -60z m1990
16 c15 -35 15 -39 -1 -50 -10 -7 -22 -13 -27 -13 -5 0 -76 -31 -158 -70 -83
-38 -152 -70 -153 -70 -4 0 -36 76 -36 83 0 2 21 13 48 25 246 109 298 131
304 132 4 0 15 -17 23 -37z m-2331 -113 c5 -5 4 -36 -2 -72 -6 -35 -14 -91
-17 -125 l-7 -63 351 0 351 0 0 -55 0 -55 -350 0 -350 0 0 -22 c1 -24 14 -134
26 -204 l6 -41 -51 -13 c-29 -7 -55 -10 -58 -7 -11 12 -33 124 -39 205 l-7 82
-131 0 c-72 0 -155 3 -183 6 l-53 7 0 -36 c0 -33 -3 -37 -32 -45 l-33 -8 -5
125 c-3 69 -4 128 -3 130 1 2 18 0 38 -3 33 -7 35 -9 35 -48 0 -40 0 -40 33
-34 17 4 100 9 183 13 l151 5 7 74 c3 41 13 105 21 143 l16 68 47 -9 c26 -6
51 -14 56 -18z m200 -29 c-5 -58 -15 -66 -55 -46 -19 10 -35 19 -37 20 -2 2 4
17 12 34 16 29 17 30 49 16 17 -7 32 -18 31 -24z m1136 -18 c73 -23 144 -89
165 -153 34 -103 16 -213 -47 -285 -55 -63 -114 -88 -202 -88 -91 0 -145 23
-196 80 -106 120 -104 267 4 377 79 81 169 104 276 69z m995 -504 c68 -60 70
-158 4 -213 -39 -33 -111 -35 -169 -6 -45 23 -47 28 -25 70 l15 30 33 -20 c36
-22 87 -26 105 -8 27 27 10 81 -34 106 -12 6 -12 14 -3 40 14 40 29 40 74 1z
m-2110 -19 c15 -29 15 -32 -5 -57 -11 -14 -20 -33 -20 -42 0 -28 30 -61 56
-61 17 0 27 -8 34 -26 15 -38 13 -43 -23 -49 -56 -11 -104 16 -129 71 -29 66
-20 119 26 161 20 18 38 33 41 33 2 0 12 -14 20 -30z m322 -23 l21 -43 -27
-16 c-15 -8 -58 -32 -94 -52 l-67 -38 -19 43 c-11 24 -18 47 -15 51 5 8 165
97 175 98 3 0 14 -19 26 -43z m1518 2 c19 -12 35 -25 35 -30 0 -18 -34 -79
-44 -79 -18 1 -106 59 -106 71 0 5 7 24 16 40 18 35 37 34 99 -2z m-1206 -36
c17 -21 31 -42 31 -47 0 -6 -118 -127 -262 -270 l-262 -260 55 -49 c68 -62
173 -132 267 -176 40 -19 72 -39 72 -43 0 -5 -10 -29 -21 -53 -25 -54 -24 -54
-153 17 -138 77 -234 146 -325 235 l-84 82 54 49 c30 27 90 81 134 120 44 39
163 152 265 251 102 99 188 180 192 181 3 0 20 -17 37 -37z m957 -77 l119
-114 -40 -41 c-21 -23 -43 -40 -47 -39 -11 4 -228 221 -228 228 0 6 67 80 73
80 2 0 57 -51 123 -114z m-2078 41 c11 -26 10 -28 -33 -49 -50 -25 -51 -25
-31 -73 l15 -34 47 20 c49 22 63 17 64 -23 0 -37 -135 -108 -206 -108 -52 0
-73 16 -100 73 -45 97 -20 166 60 167 17 1 60 16 96 35 69 35 70 35 88 -8z
m3093 29 c24 -8 84 -27 132 -41 l88 -26 -7 -37 c-3 -20 -11 -42 -18 -48 -12
-13 -160 -64 -184 -64 -29 0 2 -17 73 -40 39 -13 71 -23 72 -24 1 -1 -2 -18
-8 -38 l-9 -36 -118 39 c-64 22 -123 43 -129 47 -10 6 -10 17 0 53 l13 44 97
24 c53 13 97 26 97 30 0 4 -36 18 -80 30 -44 13 -82 26 -84 30 -3 6 12 71 18
71 1 0 22 -7 47 -14z m-2736 -227 c25 -50 60 -109 76 -132 l31 -42 -38 -32
c-20 -18 -42 -33 -48 -33 -22 0 -166 258 -166 296 0 10 52 30 87 33 7 1 33
-40 58 -90z m2461 73 c17 -10 -38 -147 -100 -246 l-48 -76 -44 32 c-24 17 -44
36 -44 41 0 6 16 34 36 64 19 29 51 88 70 129 l35 76 41 -6 c23 -4 47 -10 54
-14z m-1236 -393 l0 -382 73 7 c39 4 109 16 155 27 46 10 89 19 96 19 12 0 46
-71 46 -96 0 -16 -244 -64 -327 -64 l-43 0 0 -100 0 -100 -60 0 -60 0 0 100 0
100 -42 0 c-62 0 -289 41 -305 55 -2 1 4 25 13 54 12 42 19 51 32 46 25 -9
240 -45 273 -45 l29 0 0 380 0 380 60 0 60 0 0 -381z m779 203 c47 -43 119
-104 159 -136 39 -31 72 -64 72 -72 0 -18 -177 -194 -195 -194 -7 0 -28 18
-46 41 l-32 40 49 50 49 50 -115 109 -115 108 40 41 c21 23 41 41 43 41 3 0
43 -35 91 -78z m-307 -117 c21 -55 38 -105 38 -112 0 -17 -50 -53 -74 -53 -12
0 -53 16 -92 35 -38 19 -74 35 -81 35 -7 0 -3 -22 13 -61 14 -34 24 -62 22
-64 -11 -9 -49 -25 -60 -25 -16 0 -93 213 -84 235 2 7 18 16 34 20 24 5 51 -4
131 -44 l100 -51 -29 83 c-17 45 -30 87 -30 92 0 6 12 17 28 26 33 19 31 22
84 -116z m-982 110 l29 -15 -35 -74 c-40 -85 -41 -110 -3 -114 21 -2 31 4 48
31 58 93 181 69 205 -40 10 -43 -17 -97 -62 -128 -33 -23 -37 -23 -54 -8 -25
23 -23 38 12 75 33 34 36 48 18 66 -21 21 -44 13 -76 -28 -23 -27 -43 -41 -67
-46 -69 -13 -135 38 -135 103 0 36 67 193 82 193 5 0 22 -7 38 -15z m-830
-191 c39 -58 70 -109 70 -114 0 -8 -50 -44 -54 -38 -2 2 -24 37 -51 78 -58 92
-53 87 -70 69 -12 -12 -8 -24 32 -88 57 -90 54 -115 -19 -145 -72 -30 -96 -15
-165 101 -31 51 -54 96 -51 99 5 4 229 141 236 143 1 1 34 -47 72 -105z m2680
56 c33 -17 66 -41 75 -53 19 -30 11 -74 -20 -113 l-23 -29 25 -42 25 -43 -20
-31 -19 -31 -32 43 c-17 24 -31 47 -31 51 0 4 -7 8 -15 8 -9 0 -47 16 -85 35
l-70 35 15 30 c9 17 17 30 19 30 2 0 30 -12 62 -26 l59 -26 22 27 c32 37 29
49 -19 70 -67 29 -70 33 -52 66 8 16 17 29 20 29 2 0 31 -14 64 -30z m-667
-293 c37 -45 35 -49 -81 -110 -69 -36 -92 -44 -100 -35 -18 23 -43 79 -40 89
4 11 169 96 182 94 6 -1 23 -18 39 -38z m-1692 -77 c73 -38 98 -113 59 -177
-22 -37 -53 -48 -111 -40 -21 3 -39 2 -39 -1 0 -4 -15 -24 -33 -44 l-32 -37
-28 22 -28 23 35 45 c31 41 33 47 20 69 -27 50 -7 117 44 144 37 21 66 20 113
-4z m1985 -51 l-7 -72 36 23 c68 42 145 2 145 -75 0 -52 -22 -82 -89 -124
l-49 -30 -16 24 c-22 34 -21 36 29 70 45 31 60 50 49 66 -7 12 -51 12 -58 0
-3 -5 -26 -21 -51 -36 l-46 -26 -20 23 c-14 17 -18 33 -15 60 4 35 3 36 -21
27 -34 -13 -41 -12 -53 10 -9 17 0 26 73 75 45 31 86 56 91 56 5 0 5 -32 2
-71z m189 27 c0 -52 -63 -62 -73 -12 -7 33 6 47 40 44 29 -3 33 -7 33 -32z
m-1755 -224 c25 -8 46 -16 48 -17 1 -1 -3 -15 -8 -31 -8 -23 -16 -30 -38 -29
-24 0 -29 -6 -47 -58 -22 -64 -17 -83 28 -105 20 -9 31 -10 51 -1 20 10 32 31
57 106 17 51 34 91 38 88 5 -2 20 -9 34 -14 l26 -10 -18 -58 c-10 -32 -24 -77
-30 -100 -20 -74 -91 -107 -177 -83 -56 16 -94 61 -94 112 0 19 9 61 20 93 11
32 20 68 20 81 0 37 11 56 29 49 9 -4 36 -14 61 -23z m1125 -41 c14 -43 20
-50 49 -55 33 -6 74 -42 96 -84 13 -27 15 -24 -24 -44 -29 -15 -30 -15 -51 16
-26 39 -60 44 -105 14 -30 -20 -35 -30 -38 -69 -3 -39 -7 -46 -32 -56 -37 -14
-43 -6 -45 57 -1 33 -9 57 -27 81 -24 32 -58 92 -58 103 0 2 13 9 29 14 33 12
38 8 66 -48 10 -19 19 -36 20 -38 3 -3 34 14 64 34 2 2 -5 23 -14 49 -10 25
-16 47 -14 48 8 6 54 26 61 26 3 1 14 -21 23 -48z m-435 -206 l0 -35 -55 0
c-52 0 -55 -1 -55 -25 0 -16 6 -25 15 -25 10 0 15 -10 15 -30 l0 -30 -70 0
-70 0 0 30 c0 20 5 30 15 30 9 0 15 9 15 25 0 24 -3 25 -55 25 l-55 0 0 35 0
35 150 0 150 0 0 -35z"/>
<path d="M3990 3452 l-23 -18 28 -42 c22 -34 31 -40 45 -32 30 16 32 41 8 76
-27 39 -29 40 -58 16z"/>
<path d="M2492 2580 c-43 -26 -76 -99 -68 -146 8 -39 47 -89 87 -109 92 -48
209 25 209 129 0 92 -54 146 -145 146 -33 0 -62 -7 -83 -20z"/>
<path d="M865 1990 c-10 -16 28 -85 48 -88 25 -5 30 20 13 62 -15 36 -47 49
-61 26z"/>
<path d="M1095 1520 c-4 -6 9 -35 28 -65 29 -46 36 -53 50 -42 14 11 12 18
-15 65 -29 50 -50 64 -63 42z"/>
<path d="M1537 1203 c-14 -13 -6 -40 18 -63 21 -19 30 -22 43 -14 24 16 27 42
6 65 -17 19 -54 26 -67 12z"/>
</g>
</svg>
