<?xml version="1.0" standalone="no"?>
<!DOCTYPE svg PUBLIC "-//W3C//DTD SVG 20010904//EN"
 "http://www.w3.org/TR/2001/REC-SVG-20010904/DTD/svg10.dtd">
<svg version="1.0" xmlns="http://www.w3.org/2000/svg"
 width="500.000000pt" height="500.000000pt" viewBox="0 0 500.000000 500.000000"
 preserveAspectRatio="xMidYMid meet">

<g transform="translate(0.000000,500.000000) scale(0.100000,-0.100000)"
fill="#000000" stroke="none">
<path d="M2440 4623 c-14 -2 -85 -22 -159 -45 -142 -42 -179 -47 -235 -28 -46
15 -73 1 -82 -45 -9 -48 19 -121 64 -168 l37 -39 -32 4 c-18 3 -33 1 -33 -4 0
-16 48 -57 75 -64 23 -6 26 -11 22 -33 -3 -14 -16 -103 -28 -197 l-23 -171 36
-136 c20 -76 33 -139 30 -140 -4 -2 -59 -21 -122 -42 -214 -70 -291 -117 -346
-212 -30 -50 -54 -132 -54 -185 0 -74 38 -68 -466 -68 -398 0 -459 -2 -496
-17 -56 -21 -75 -39 -103 -94 -31 -60 -31 -64 -60 -434 -45 -600 -51 -734 -32
-788 l16 -47 -54 -26 c-104 -49 -144 -129 -105 -210 34 -69 58 -78 242 -82
l158 -4 0 -459 0 -459 -275 0 -275 0 -12 -25 c-9 -21 -8 -28 7 -45 18 -20 29
-20 2381 -20 1490 0 2373 4 2389 10 19 7 25 17 25 40 0 16 -1 31 -2 32 -2 1
-113 5 -247 8 l-243 5 -2 400 c0 220 1 425 2 456 l4 57 132 4 c118 3 135 6
164 27 63 44 80 124 42 187 -20 31 -107 94 -131 94 -7 0 -8 7 -4 18 39 93 39
96 -14 907 -20 306 -25 333 -76 393 -57 67 -50 66 -570 72 l-469 5 -12 87
c-20 152 -83 242 -214 308 -69 34 -341 129 -418 145 -31 6 -32 8 -26 43 4 21
37 98 75 172 88 175 113 258 114 375 0 128 -14 168 -86 237 -32 31 -59 64 -59
74 0 9 -18 34 -40 55 -59 56 -143 79 -279 78 -58 -1 -117 -4 -131 -6z m135
-446 c0 -95 2 -106 33 -166 22 -44 32 -78 32 -108 0 -60 14 -83 50 -83 35 0
60 33 81 107 15 57 48 76 80 47 53 -48 -15 -200 -98 -218 -36 -8 -42 -14 -53
-49 -18 -61 -82 -123 -174 -167 -161 -77 -281 -97 -305 -52 -5 9 -28 95 -51
190 l-43 172 27 183 c14 100 27 193 28 207 l3 25 120 -2 c66 -1 140 1 165 6
25 5 59 9 75 10 l30 1 0 -103z m195 -566 c0 -47 4 -63 23 -83 17 -18 21 -31
17 -54 -9 -42 -59 -151 -96 -209 -40 -63 -145 -175 -164 -175 -25 0 -147 139
-184 210 -41 77 -48 105 -11 44 13 -22 35 -45 49 -52 60 -27 174 82 288 275
33 57 64 103 69 103 5 0 9 -26 9 -59z m315 -167 c77 -25 159 -56 182 -70 59
-34 112 -90 136 -144 21 -47 20 -26 67 -901 11 -212 6 -268 -32 -330 l-21 -34
-12 40 c-18 62 -41 99 -81 134 -41 37 -70 50 -134 60 -44 8 -44 8 -16 16 53
15 132 -21 206 -92 35 -35 65 -63 67 -63 1 0 0 8 -1 18 -2 9 -6 34 -10 54 -5
26 -22 53 -55 87 -51 52 -95 71 -167 71 l-41 0 -7 198 -6 197 26 20 c51 38
159 153 152 161 -3 2 -33 -7 -68 -21 -35 -14 -65 -23 -67 -22 -1 2 2 17 7 33
30 88 101 374 94 374 -9 0 -52 -79 -74 -135 -13 -33 -27 -64 -31 -70 -4 -5
-23 -50 -43 -100 -20 -49 -41 -99 -46 -110 -5 -11 -35 -83 -66 -160 -31 -77
-74 -176 -96 -220 -66 -133 -129 -277 -126 -287 7 -20 149 194 222 335 17 31
31 55 32 54 3 -2 -16 -321 -19 -323 -1 -1 -83 -41 -182 -90 -166 -82 -177 -89
-143 -92 20 -2 70 3 112 11 42 8 76 14 76 12 0 -1 -27 -23 -60 -49 -58 -46
-62 -47 -171 -62 l-111 -14 -97 65 c-53 36 -149 102 -214 147 -64 44 -120 79
-123 76 -18 -19 113 -156 240 -251 l51 -38 -40 5 c-22 4 -73 10 -114 15 l-75
10 -68 68 -68 68 -19 195 c-10 107 -18 196 -16 198 1 1 26 -41 56 -93 30 -53
64 -108 77 -123 l23 -27 -6 35 c-7 39 -80 303 -125 450 -16 52 -45 149 -64
215 -54 188 -121 355 -148 371 -13 8 -4 -37 59 -295 29 -123 52 -228 51 -233
-2 -5 -44 18 -93 52 -50 33 -93 60 -97 60 -4 0 -2 -13 3 -29 13 -37 109 -143
155 -172 34 -21 35 -23 30 -68 -3 -25 -11 -115 -17 -198 l-12 -153 -56 0 c-70
0 -125 -25 -174 -76 -36 -38 -48 -74 -25 -74 6 0 32 13 57 29 69 45 129 58
183 41 l43 -14 -53 -8 c-29 -4 -67 -15 -83 -24 -62 -31 -123 -121 -132 -194
-3 -19 -6 -37 -6 -39 -3 -12 -55 48 -67 76 -24 55 -20 130 41 903 20 265 24
288 50 340 49 96 123 143 317 200 118 35 125 36 132 12 3 -10 19 -25 35 -35
19 -11 41 -42 64 -91 55 -116 179 -271 253 -317 30 -18 39 -20 62 -10 114 53
259 254 318 444 15 50 20 56 38 51 12 -3 84 -26 161 -50z m-1515 -526 c0 -35
-3 -80 -6 -100 -6 -36 -9 -38 -43 -38 -72 0 -172 -13 -160 -21 7 -4 55 -11
106 -14 l94 -7 -6 -92 c-3 -50 -8 -101 -11 -113 l-4 -23 -255 0 c-156 0 -265
4 -282 11 -44 16 -220 22 -293 9 -36 -6 -86 -14 -112 -17 l-48 -5 0 47 c0 75
20 287 31 321 13 41 59 84 101 94 18 4 225 8 461 9 l427 1 0 -62z m2886 43
c12 -8 33 -32 47 -53 26 -40 26 -43 43 -300 l6 -98 -500 0 -499 0 -7 38 c-3
20 -6 71 -6 114 l0 76 103 6 c56 3 163 8 237 11 200 7 203 8 105 16 -49 4
-172 7 -272 8 l-183 1 0 39 c0 21 -3 66 -6 100 l-7 62 459 -3 c376 -2 463 -6
480 -17z m-3462 -596 c3 -29 9 -60 12 -69 5 -12 -3 -12 -45 5 -28 10 -60 19
-71 19 -16 0 -19 5 -15 23 8 32 -9 50 -45 50 -34 0 -49 -15 -50 -48 0 -16 -15
-25 -64 -41 l-64 -21 9 31 c5 17 9 47 9 68 0 20 4 38 10 40 5 2 77 2 159 0
l148 -3 7 -54z m516 56 l26 -1 -8 -101 c-4 -56 -9 -103 -11 -105 -2 -2 -92 -7
-200 -10 l-196 -7 5 35 c5 30 2 38 -24 59 -24 19 -31 34 -35 76 l-6 52 107 3
c90 3 232 2 342 -1z m3051 -14 c0 -6 6 -106 13 -222 7 -115 11 -213 9 -217 -2
-5 -243 -8 -534 -8 -292 0 -529 3 -527 8 24 45 37 86 42 133 l7 57 52 6 c29 3
107 8 175 12 67 4 121 8 120 9 -5 5 -107 14 -231 21 -74 4 -120 11 -122 18 -2
6 -5 52 -7 103 -3 76 -1 93 11 95 8 2 234 2 503 0 378 -2 488 -5 489 -15z
m-3966 -44 c-5 -44 -13 -61 -32 -76 -20 -16 -24 -26 -20 -53 4 -21 1 -37 -8
-44 -10 -9 -12 5 -8 77 7 146 9 153 45 153 l30 0 -7 -57z m358 -156 c60 -25
133 -104 148 -160 16 -56 15 -143 -1 -192 -18 -54 -100 -138 -161 -165 -102
-43 -221 -21 -302 58 -55 52 -79 106 -85 183 -6 84 16 153 66 208 43 47 122
91 163 91 25 0 28 -4 31 -37 4 -55 32 -52 36 5 3 40 4 42 30 36 15 -4 49 -16
75 -27z m569 -129 c3 -46 8 -91 12 -100 8 -17 -4 -18 -163 -18 l-171 0 0 24
c0 22 -26 113 -45 159 -7 16 6 17 178 17 l185 0 4 -82z m1704 23 c43 -26 84
-82 90 -123 l6 -34 -259 -126 c-171 -83 -269 -136 -290 -158 -35 -36 -58 -100
-69 -193 -8 -65 -24 -90 -83 -131 l-40 -28 -53 18 -53 18 41 12 c55 16 83 31
117 62 49 46 26 123 -41 138 -15 3 -32 7 -39 9 -11 4 -177 -36 -215 -50 -9 -4
-17 8 -26 37 -27 100 -42 110 -407 276 -127 58 -130 60 -133 93 -4 46 34 118
77 146 55 37 83 31 154 -34 121 -112 238 -208 280 -231 42 -24 48 -24 150 -6
47 8 64 -6 97 -76 28 -61 19 -80 -27 -57 -16 9 -35 23 -42 31 -8 9 -24 16 -37
16 -20 0 -24 -5 -24 -29 0 -61 107 -115 174 -87 44 18 54 52 36 115 -24 87
-24 91 -2 91 11 0 33 -5 48 -10 23 -9 34 -6 75 18 53 34 179 132 306 240 95
80 129 90 189 53z m-1636 -227 c0 -3 -18 -27 -39 -53 -22 -26 -47 -63 -57 -83
-18 -39 -36 -48 -96 -48 -32 0 -37 3 -43 30 -10 46 -39 60 -120 60 l-72 0 16
50 16 50 198 0 c108 0 197 -3 197 -6z m2710 -89 l0 -94 -359 0 -358 0 -22 49
c-12 26 -44 69 -71 94 l-49 46 429 0 430 0 0 -95z m290 41 c0 -62 -15 -113
-39 -125 -9 -5 -40 -9 -69 -9 l-52 -1 0 95 0 94 80 0 80 0 0 -54z m-4047 -125
c-6 -8 -20 13 -28 39 -6 23 -5 22 13 -5 11 -16 18 -32 15 -34z m735 -78 l3
-63 -61 0 -60 0 0 65 0 66 58 -3 57 -3 3 -62z m-703 -30 c-16 -39 -11 -58 17
-61 23 -3 30 3 47 36 l20 40 48 -15 c60 -19 183 -19 245 0 l47 15 26 -39 c14
-22 30 -39 35 -39 6 0 10 -16 10 -35 l0 -35 -349 0 c-301 0 -350 2 -361 15
-23 28 3 59 81 98 80 41 147 51 134 20z m885 -20 c0 -21 3 -55 6 -75 6 -36 5
-38 -19 -38 -22 0 -28 6 -37 43 -6 23 -15 57 -20 75 l-8 32 39 0 c38 0 39 -1
39 -37z m3165 7 c78 -38 100 -61 91 -95 l-6 -25 -565 0 -565 0 0 38 c0 20 3
54 6 75 l7 37 485 0 485 0 62 -30z m-3343 -115 c1 -30 2 -60 0 -65 -2 -6 -33
-10 -68 -10 l-64 0 0 65 0 65 64 0 64 0 4 -55z m1303 10 c0 -44 -207 -95 -250
-62 -29 22 -13 33 90 61 109 30 160 30 160 1z m-1232 -435 c17 -441 19 -600
10 -600 -10 0 -18 228 -27 740 -5 262 6 178 17 -140z m-288 268 c-3 -24 -9
-216 -15 -428 -6 -212 -13 -400 -16 -418 l-5 -33 -87 3 -87 3 -2 458 -3 457
110 0 110 0 -5 -42z m225 -413 c0 -357 -3 -455 -12 -456 -7 -1 -48 -2 -92 -4
l-78 -3 6 157 c3 86 8 244 11 351 3 107 8 243 11 303 l6 107 74 0 74 0 0 -455z
m212 305 c34 -283 67 -586 74 -677 l7 -93 -55 0 -55 0 -7 46 c-3 26 -6 81 -6
122 0 42 -7 193 -15 336 -8 144 -16 296 -19 339 l-4 78 31 -3 32 -3 17 -145z
m771 121 c7 -34 55 -85 106 -111 49 -25 248 -27 298 -3 43 20 92 77 100 114
l6 29 163 0 c154 0 164 -1 164 -19 0 -10 -13 -176 -30 -367 -16 -192 -32 -391
-36 -442 l-7 -92 -523 0 -524 0 0 35 c0 43 -17 341 -31 535 -5 80 -12 191 -16
248 l-6 102 165 0 166 0 5 -29z m1997 -431 l0 -460 -416 0 -416 0 6 38 c3 20
8 60 10 87 20 183 93 748 102 778 5 16 31 17 360 17 l354 0 0 -460z m-1790
376 c8 -3 -5 -4 -29 -2 -26 3 -52 13 -65 25 l-20 21 49 -19 c28 -10 57 -21 65
-25z"/>
<path d="M3224 2372 c11 -20 39 -44 84 -68 37 -20 86 -48 110 -61 52 -29 54
-18 5 36 -38 40 -142 105 -190 117 -25 7 -25 7 -9 -24z"/>
<path d="M637 2084 c-18 -18 -2 -42 52 -81 32 -23 66 -45 75 -49 10 -4 22 -17
27 -30 11 -32 68 -35 76 -4 3 10 43 47 90 81 46 33 82 66 80 72 -9 27 -43 16
-122 -38 -93 -64 -81 -65 -187 7 -66 44 -81 51 -91 42z"/>
<path d="M1200 1470 c0 -16 5 -21 23 -18 12 2 22 10 22 18 0 8 -10 16 -22 18
-18 3 -23 -2 -23 -18z"/>
</g>
</svg>
